SplineFontDB: 3.0
FontName: NyStormningGr
FullName: Ny Stormning Gren
FamilyName: Ny Stormning
Weight: Gren
Copyright: Copyright (c) 2016, Mew Too/Cannot Into Space Fonts, Robert Jablonski/Cannot Into Space Fonts, All Rights Reserved.
Version: 0.90
ItalicAngle: 0
UnderlinePosition: -100
UnderlineWidth: 50
Ascent: 800
Descent: 200
InvalidEm: 0
sfntRevision: 0x0000e666
LayerCount: 2
Layer: 0 0 "Back" 1
Layer: 1 0 "Fore" 0
XUID: [1021 908 -2008021153 9976829]
StyleMap: 0x0000
FSType: 0
OS2Version: 4
OS2_WeightWidthSlopeOnly: 0
OS2_UseTypoMetrics: 1
CreationTime: 1422214609
ModificationTime: 1452319166
PfmFamily: 33
TTFWeight: 400
TTFWidth: 5
LineGap: 90
VLineGap: 0
Panose: 2 0 5 3 0 0 0 0 0 0
OS2TypoAscent: 800
OS2TypoAOffset: 0
OS2TypoDescent: -200
OS2TypoDOffset: 0
OS2TypoLinegap: 90
OS2WinAscent: 904
OS2WinAOffset: 0
OS2WinDescent: 1
OS2WinDOffset: 0
HheadAscent: 904
HheadAOffset: 0
HheadDescent: -1
HheadDOffset: 0
OS2SubXSize: 650
OS2SubYSize: 699
OS2SubXOff: 0
OS2SubYOff: 140
OS2SupXSize: 650
OS2SupYSize: 699
OS2SupXOff: 0
OS2SupYOff: 479
OS2StrikeYSize: 49
OS2StrikeYPos: 258
OS2CapHeight: 860
OS2XHeight: 860
OS2FamilyClass: 2048
OS2Vendor: 'CiSf'
OS2CodePages: 00000001.00000000
OS2UnicodeRanges: 00000007.00000000.00000000.00000000
Lookup: 258 0 0 "'kern' Horizontal Kerning in Latin lookup 0" { "'kern' Horizontal Kerning in Latin lookup 0-1" [100,10,2] } ['kern' ('DFLT' <'dflt' > 'latn' <'dflt' > ) ]
MarkAttachClasses: 1
DEI: 91125

StartChar: .notdef
Encoding: 65536 -1 0
Width: 445
Flags: W
HStem: 10 30<58 378> 493 30<58 378>
VStem: 28 30<40 493> 378 30<40 493>
LayerCount: 2
Fore
SplineSet
58 493 m 1
 58 40 l 1
 378 40 l 1
 378 493 l 1
 58 493 l 1
408 10 m 1
 28 10 l 1
 28 523 l 1
 408 523 l 1
 408 10 l 1
EndSplineSet
EndChar

StartChar: comma
Encoding: 44 44 2
Width: 210
Flags: W
HStem: 324 156<49.2802 151.673>
VStem: 26 150<348.215 455.785>
LayerCount: 2
Fore
SplineSet
100 324 m 0
 60 324 26 359 26 402 c 0
 26 445 60 480 100 480 c 0
 140 480 176 445 176 402 c 0
 176 359 140 324 100 324 c 0
EndSplineSet
EndChar

StartChar: period
Encoding: 46 46 3
Width: 212
Flags: W
HStem: 176 157<52.1358 151.864> 435 157<53.1358 152.864>
VStem: 27 150<200.215 308.262 461.132 566.414>
LayerCount: 2
Fore
SplineSet
102 176 m 0
 62 176 27 211 27 254 c 0
 27 297 62 333 102 333 c 0
 142 333 177 297 177 254 c 0
 177 211 142 176 102 176 c 0
103 435 m 0
 63 435 28 471 28 514 c 0
 28 557 63 592 103 592 c 0
 143 592 178 557 178 514 c 0
 178 471 143 435 103 435 c 0
EndSplineSet
EndChar

StartChar: zero
Encoding: 48 48 4
Width: 832
Flags: W
HStem: 807 20G<246 582.5>
VStem: 28 114<556.395 652.681> 352 126<20 388 479 719> 688 114<553.754 652.681>
CounterMasks: 1 70
LayerCount: 2
Fore
SplineSet
478 479 m 1
 489 480 l 2
 584 486 688 525 688 601 c 0
 688 602 l 0
 683 668 627 691 490 717 c 0
 478 719 l 1
 478 479 l 1
478 388 m 1
 478 20 l 1
 352 20 l 1
 352 388 l 1
 343 389 l 0
 185 407 30 532 28 611 c 1
 33 698 150 819 342 827 c 1
 486 827 l 1
 679 819 797 697 802 611 c 1
 800 531 644 407 487 389 c 0
 478 388 l 1
341 480 m 0
 352 479 l 1
 352 719 l 1
 340 717 l 0
 203 691 147 668 142 602 c 0
 142 601 l 1
 142 525 246 486 341 480 c 0
EndSplineSet
EndChar

StartChar: one
Encoding: 49 49 5
Width: 426
Flags: W
HStem: 784 76<150 395>
VStem: 33 117<20 784>
LayerCount: 2
Fore
SplineSet
150 784 m 1
 150 20 l 1
 33 20 l 1
 33 860 l 1
 395 860 l 1
 395 784 l 1
 150 784 l 1
EndSplineSet
EndChar

StartChar: two
Encoding: 50 50 6
Width: 429
Flags: W
HStem: 639 77<150 396> 784 76<150 396>
VStem: 33 117<20 639 716 784>
LayerCount: 2
Fore
SplineSet
150 20 m 1
 33 20 l 1
 33 860 l 1
 396 860 l 1
 396 784 l 1
 150 784 l 1
 150 716 l 1
 396 716 l 1
 396 639 l 1
 150 639 l 1
 150 20 l 1
EndSplineSet
EndChar

StartChar: three
Encoding: 51 51 7
Width: 430
Flags: W
HStem: 486 77<150 395> 632 81<150 395> 784 76<150 395>
VStem: 33 117<10 486 563 632 713 784>
LayerCount: 2
Fore
SplineSet
150 10 m 1
 33 10 l 1
 33 860 l 1
 395 860 l 1
 395 784 l 1
 150 784 l 1
 150 713 l 1
 395 713 l 1
 395 632 l 1
 150 632 l 1
 150 563 l 1
 395 563 l 1
 395 486 l 1
 150 486 l 1
 150 10 l 1
EndSplineSet
EndChar

StartChar: four
Encoding: 52 52 8
Width: 432
Flags: W
HStem: 346 77<150 395> 486 77<150 395> 632 81<150 395> 784 76<150 395>
VStem: 33 362<346 423 486 563 632 713 784 860> 33 117<10 346 423 486 563 632 713 784>
LayerCount: 2
Fore
SplineSet
150 10 m 1xf4
 33 10 l 1xf4
 33 860 l 1
 395 860 l 1
 395 784 l 1xf8
 150 784 l 1
 150 713 l 1xf4
 395 713 l 1
 395 632 l 1xf8
 150 632 l 1
 150 563 l 1xf4
 395 563 l 1
 395 486 l 1xf8
 150 486 l 1
 150 423 l 1xf4
 395 423 l 1
 395 346 l 1xf8
 150 346 l 1
 150 10 l 1xf4
EndSplineSet
EndChar

StartChar: five
Encoding: 53 53 9
Width: 513
Flags: W
HStem: 807 20G<33.9752 264.5>
VStem: 33 126<20 388 479 719> 369 114<553.754 653.124>
LayerCount: 2
Fore
SplineSet
158 479 m 1
 169 480 l 2
 263 486 369 525 369 601 c 0
 369 602 l 0
 364 669 307 691 170 717 c 0
 158 719 l 1
 158 479 l 1
33 20 m 1
 34 827 l 1
 168 827 l 1
 361 819 478 697 483 611 c 1
 481 531 325 407 168 389 c 0
 159 388 l 1
 159 20 l 1
 33 20 l 1
EndSplineSet
EndChar

StartChar: six
Encoding: 54 54 10
Width: 513
Flags: W
HStem: 321 39<169 339> 807 20G<33.9755 264.5>
VStem: 33 126<10 321 479 719> 369 114<548.194 653.124>
LayerCount: 2
Fore
SplineSet
33 10 m 1
 34 827 l 1
 168 827 l 1
 361 819 478 694 483 606 c 1
 481 524 325 398 168 380 c 1
 169 360 l 1
 339 360 l 1
 339 321 l 1
 159 321 l 1
 159 10 l 1
 33 10 l 1
158 479 m 1
 169 480 l 2
 263 486 369 525 369 601 c 0
 369 602 l 0
 364 669 307 691 170 717 c 0
 158 719 l 1
 158 479 l 1
EndSplineSet
EndChar

StartChar: seven
Encoding: 55 55 11
Width: 512
Flags: W
HStem: 233 39<159 339> 321 39<169 339> 807 20G<33.9755 264.5>
VStem: 33 126<10 233 272 321 479 719> 369 114<548.194 653.124>
LayerCount: 2
Fore
SplineSet
33 10 m 1
 34 827 l 1
 168 827 l 1
 361 819 478 694 483 606 c 1
 481 524 325 398 168 380 c 1
 169 360 l 1
 339 360 l 1
 339 321 l 1
 159 321 l 1
 159 272 l 1
 339 272 l 1
 339 233 l 1
 159 233 l 1
 159 10 l 1
 33 10 l 1
158 479 m 1
 169 480 l 2
 263 486 369 525 369 601 c 0
 369 602 l 0
 364 669 307 691 170 717 c 0
 158 719 l 1
 158 479 l 1
EndSplineSet
EndChar

StartChar: eight
Encoding: 56 56 12
Width: 512
Flags: W
HStem: 145 39<159 339> 233 39<159 339> 321 39<169 339> 807 20G<33.9755 264.5>
VStem: 33 126<10 145 184 233 272 321 479 719> 369 114<548.194 653.124>
LayerCount: 2
Fore
SplineSet
33 10 m 1
 34 827 l 1
 168 827 l 1
 361 819 478 694 483 606 c 1
 481 524 325 398 168 380 c 1
 169 360 l 1
 339 360 l 1
 339 321 l 1
 159 321 l 1
 159 272 l 1
 339 272 l 1
 339 233 l 1
 159 233 l 1
 159 184 l 1
 339 184 l 1
 339 145 l 1
 159 145 l 1
 159 10 l 1
 33 10 l 1
158 479 m 1
 169 480 l 2
 263 486 369 525 369 601 c 0
 369 602 l 0
 364 669 307 691 170 717 c 0
 158 719 l 1
 158 479 l 1
EndSplineSet
EndChar

StartChar: nine
Encoding: 57 57 13
Width: 512
Flags: W
HStem: 57 39<159 339> 145 39<159 339> 233 39<159 339> 321 39<169 339> 807 20G<33.9755 264.5>
VStem: 33 126<10 57 96 145 184 233 272 321 479 719> 369 114<548.194 653.124>
LayerCount: 2
Fore
SplineSet
33 10 m 1
 34 827 l 1
 168 827 l 1
 361 819 478 694 483 606 c 1
 481 524 325 398 168 380 c 1
 169 360 l 1
 339 360 l 1
 339 321 l 1
 159 321 l 1
 159 272 l 1
 339 272 l 1
 339 233 l 1
 159 233 l 1
 159 184 l 1
 339 184 l 1
 339 145 l 1
 159 145 l 1
 159 96 l 1
 339 96 l 1
 339 57 l 1
 159 57 l 1
 159 10 l 1
 33 10 l 1
158 479 m 1
 169 480 l 2
 263 486 369 525 369 601 c 0
 369 602 l 0
 364 669 307 691 170 717 c 0
 158 719 l 1
 158 479 l 1
EndSplineSet
EndChar

StartChar: colon
Encoding: 58 58 14
Width: 745
Flags: W
LayerCount: 2
Fore
SplineSet
531 11 m 1
 462 12 l 1
 276 12 l 1
 205 11 l 1
 324 307 l 1
 28 188 l 1
 28 515 l 1
 324 396 l 1
 205 692 l 1
 276 691 l 1
 460 691 l 1
 531 692 l 1
 412 396 l 1
 708 515 l 1
 708 188 l 1
 412 307 l 1
 531 11 l 1
EndSplineSet
EndChar

StartChar: at
Encoding: 64 64 15
Width: 847
Flags: W
HStem: 840 20G<33 235.667>
VStem: 33 117<20 594 676 778> 507 117<20 778>
LayerCount: 2
Fore
SplineSet
624 778 m 1
 624 20 l 1
 507 20 l 1
 507 778 l 1
 337 703 l 1
 329 730 l 1
 150 778 l 1
 150 676 l 1
 295 639 l 1
 270 561 l 1
 150 594 l 1
 150 20 l 1
 33 20 l 1
 33 860 l 1
 159 860 l 1
 343 812 l 1
 337 794 l 1
 570 903 l 1
 818 783 l 1
 795 703 l 1
 624 778 l 1
EndSplineSet
EndChar

StartChar: A
Encoding: 65 65 16
Width: 373
Flags: W
HStem: 830 20G<32 231.333>
VStem: 32 112<10 584 666 768>
LayerCount: 2
Fore
SplineSet
32 10 m 1
 32 850 l 1
 153 850 l 1
 341 802 l 1
 318 722 l 1
 144 768 l 1
 144 666 l 1
 294 629 l 1
 269 551 l 1
 144 584 l 1
 144 10 l 1
 32 10 l 1
EndSplineSet
EndChar

StartChar: B
Encoding: 66 66 17
Width: 537
Flags: W
HStem: 797 20G<32 178.888>
VStem: 32 112<101 726>
LayerCount: 2
Fore
SplineSet
501 261 m 1
 151 10 l 1
 32 10 l 1
 32 817 l 1
 151 817 l 1
 501 566 l 1
 276 414 l 1
 501 261 l 1
144 416 m 1
 144 411 l 1
 147 414 l 1
 144 416 l 1
144 416 m 1
 144 411 l 1
 144 101 l 1
 376 261 l 1
 147 414 l 1
 376 566 l 1
 144 726 l 1
 144 416 l 1
EndSplineSet
EndChar

StartChar: C
Encoding: 67 67 18
Width: 346
Flags: W
VStem: 28 283
LayerCount: 2
Fore
SplineSet
28 430 m 1
 311 816 l 1
 310 661 l 1
 149 430 l 1
 310 199 l 1
 311 44 l 1
 28 430 l 1
EndSplineSet
EndChar

StartChar: D
Encoding: 68 68 19
Width: 666
Flags: W
HStem: 830 20G<32 159.42 499.517 628>
VStem: 32 95<178 682> 533 95<178 682>
LayerCount: 2
Fore
SplineSet
533 178 m 1
 533 682 l 1
 386 430 l 1
 533 178 l 1
127 682 m 1
 127 178 l 1
 273 430 l 1
 127 682 l 1
148 10 m 1
 32 10 l 1
 32 850 l 1
 148 850 l 1
 329 533 l 1
 511 850 l 1
 628 850 l 1
 628 10 l 1
 511 10 l 1
 329 327 l 1
 148 10 l 1
EndSplineSet
EndChar

StartChar: E
Encoding: 69 69 20
Width: 715
Flags: W
VStem: 32 112<20 738> 565 112<20 738>
LayerCount: 2
Fore
SplineSet
565 20 m 1
 565 738 l 1
 354 599 l 1
 144 738 l 1
 144 20 l 1
 32 20 l 1
 32 903 l 1
 79 904 l 1
 355 694 l 1
 630 904 l 1
 677 903 l 1
 677 20 l 1
 565 20 l 1
EndSplineSet
EndChar

StartChar: F
Encoding: 70 70 21
Width: 525
Flags: W
HStem: 831 20G<32 144 342.61 483>
VStem: 32 112<11 211 359 467 615 851>
LayerCount: 2
Fore
SplineSet
144 10 m 1
 32 11 l 1
 32 851 l 1
 144 851 l 1
 144 615 l 1
 361 851 l 1
 483 851 l 1
 144 467 l 1
 144 359 l 1
 363 588 l 1
 484 588 l 1
 144 211 l 1
 144 10 l 1
EndSplineSet
EndChar

StartChar: G
Encoding: 71 71 22
Width: 625
Flags: W
HStem: 752 86<258.572 330.176> 830 20G<32 144 474.5 593>
VStem: 32 112<10 422 514 850> 253 83<757.642 832.358>
LayerCount: 2
Fore
SplineSet
144 514 m 1x70
 157 519 l 2
 272 562 446 699 503 850 c 1
 593 850 l 1
 542 676 315 485 151 424 c 0
 144 422 l 1
 144 10 l 1
 32 10 l 1
 32 850 l 1
 144 850 l 1
 144 514 l 1x70
294 752 m 0xb0
 272 752 253 771 253 795 c 0
 253 819 272 838 294 838 c 0
 316 838 336 819 336 795 c 0
 336 771 316 752 294 752 c 0xb0
EndSplineSet
EndChar

StartChar: H
Encoding: 72 72 23
Width: 627
Flags: W
HStem: 830 20G<32 144 477 589>
VStem: 32 112<10 434 519 850> 477 112<10 348 433 850>
LayerCount: 2
Fore
SplineSet
144 10 m 1
 32 10 l 1
 32 850 l 1
 144 850 l 1
 144 519 l 1
 477 433 l 1
 477 850 l 1
 589 850 l 1
 589 10 l 1
 477 10 l 1
 477 348 l 1
 144 434 l 1
 144 10 l 1
EndSplineSet
EndChar

StartChar: I
Encoding: 73 73 24
Width: 182
Flags: W
HStem: 830 20G<32 144>
VStem: 32 112<10 850>
LayerCount: 2
Fore
SplineSet
144 10 m 1
 32 10 l 1
 32 850 l 1
 144 850 l 1
 144 10 l 1
EndSplineSet
EndChar

StartChar: J
Encoding: 74 74 25
Width: 578
Flags: W
HStem: 806 20G<241.986 258>
LayerCount: 2
Fore
SplineSet
547 316 m 1
 318 29 l 1
 318 183 l 1
 431 316 l 1
 318 448 l 1
 318 602 l 1
 547 316 l 1
258 407 m 1
 258 253 l 1
 29 540 l 1
 258 826 l 1
 258 672 l 1
 145 540 l 1
 258 407 l 1
EndSplineSet
EndChar

StartChar: K
Encoding: 75 75 26
Width: 486
Flags: W
HStem: 831 20G<32 144 310.31 448>
VStem: 32 112<11 489 619 851>
LayerCount: 2
Fore
SplineSet
144 10 m 1
 32 11 l 1
 32 851 l 1
 144 851 l 1
 144 619 l 1
 326 851 l 1
 448 851 l 1
 144 489 l 1
 144 10 l 1
EndSplineSet
EndChar

StartChar: L
Encoding: 76 76 27
Width: 368
Flags: W
VStem: 32 110<20 740>
LayerCount: 2
Fore
SplineSet
142 20 m 1
 32 20 l 1
 32 897 l 1
 336 745 l 1
 312 665 l 1
 142 740 l 1
 142 20 l 1
EndSplineSet
EndChar

StartChar: M
Encoding: 77 77 28
Width: 715
Flags: W
VStem: 32 111<20 437 507 727> 565 112<20 438 507 727>
LayerCount: 2
Fore
SplineSet
143 507 m 1
 294 631 l 1
 143 727 l 1
 143 507 l 1
415 630 m 1
 565 507 l 1
 565 727 l 1
 415 630 l 1
677 20 m 1
 565 20 l 1
 565 438 l 1
 355 600 l 1
 144 437 l 1
 143 20 l 1
 32 20 l 1
 32 903 l 1
 79 904 l 1
 355 694 l 1
 630 904 l 1
 677 903 l 1
 677 20 l 1
EndSplineSet
EndChar

StartChar: N
Encoding: 78 78 29
Width: 549
Flags: W
HStem: 830 20G<212 324>
VStem: 212 112<10 415 530 850>
LayerCount: 2
Fore
SplineSet
509 367 m 1
 324 415 l 1
 324 10 l 1
 212 10 l 1
 212 444 l 1
 28 492 l 1
 49 573 l 1
 212 530 l 1
 212 850 l 1
 324 850 l 1
 324 501 l 1
 519 450 l 1
 509 367 l 1
EndSplineSet
EndChar

StartChar: O
Encoding: 79 79 30
Width: 375
Flags: W
HStem: 830 20G<32 144>
VStem: 32 112<10 299 384 474 558 850>
LayerCount: 2
Fore
SplineSet
144 10 m 1
 32 10 l 1
 32 850 l 1
 144 850 l 1
 144 558 l 1
 309 603 l 1
 330 523 l 1
 144 474 l 1
 144 384 l 1
 322 432 l 1
 343 352 l 1
 144 299 l 1
 144 10 l 1
EndSplineSet
EndChar

StartChar: P
Encoding: 80 80 31
Width: 377
Flags: W
VStem: 32 112<148 776>
LayerCount: 2
Fore
SplineSet
80 20 m 1
 32 21 l 1
 32 903 l 1
 80 904 l 1
 343 783 l 1
 320 703 l 1
 144 776 l 1
 144 148 l 1
 320 221 l 1
 343 141 l 1
 80 20 l 1
EndSplineSet
EndChar

StartChar: Q
Encoding: 81 81 32
Width: 433
Flags: W
HStem: 830 20G<283 395>
VStem: 283 112<10 123 245 615 737 850>
LayerCount: 2
Fore
SplineSet
29 430 m 1
 283 737 l 1
 283 850 l 1
 395 850 l 1
 395 10 l 1
 283 10 l 1
 283 123 l 1
 29 430 l 1
283 245 m 1
 283 615 l 1
 124 430 l 1
 283 245 l 1
EndSplineSet
EndChar

StartChar: R
Encoding: 82 82 33
Width: 600
Flags: W
HStem: 795 20G<32 178.623>
VStem: 32 112<10 726>
LayerCount: 2
Fore
SplineSet
341 416 m 1
 567 10 l 1
 452 10 l 1
 268 343 l 1
 268 450 l 1
 390 551 l 1
 144 726 l 1
 144 10 l 1
 32 10 l 1
 32 815 l 1
 151 815 l 1
 517 550 l 1
 341 416 l 1
EndSplineSet
EndChar

StartChar: S
Encoding: 83 83 34
Width: 538
Flags: W
HStem: 766 20G<32 148>
VStem: 32 116<392 786> 383 117<10 405>
LayerCount: 2
Fore
SplineSet
32 264 m 1
 32 786 l 1
 148 786 l 1
 148 392 l 1
 162 398 l 0
 261 440 355 488 448 533 c 1
 500 532 l 1
 500 10 l 1
 383 10 l 1
 383 405 l 1
 369 399 l 0
 270 357 177 308 84 263 c 1
 32 264 l 1
EndSplineSet
EndChar

StartChar: T
Encoding: 84 84 35
Width: 558
Flags: W
VStem: 222 110<20 741>
LayerCount: 2
Fore
SplineSet
332 741 m 1
 332 20 l 1
 222 20 l 1
 222 741 l 1
 52 666 l 1
 28 747 l 1
 278 902 l 1
 526 747 l 1
 502 666 l 1
 332 741 l 1
EndSplineSet
EndChar

StartChar: U
Encoding: 85 85 36
Width: 616
Flags: W
HStem: 830 20G<32 158.357>
VStem: 32 112<10 633>
LayerCount: 2
Fore
SplineSet
32 850 m 1
 148 850 l 1
 583 10 l 1
 468 10 l 1
 144 633 l 1
 144 10 l 1
 32 10 l 1
 32 850 l 1
EndSplineSet
EndChar

StartChar: V
Encoding: 86 86 37
Width: 525
Flags: W
HStem: 791 59<206.096 257.987>
VStem: 32 112<11 211 359 467 615 851> 205 54<791.743 849.082>
LayerCount: 2
Fore
SplineSet
144 10 m 1
 32 11 l 1
 32 851 l 1
 144 851 l 1
 144 615 l 1
 361 851 l 1
 483 851 l 1
 144 467 l 1
 144 359 l 1
 363 588 l 1
 484 588 l 1
 144 211 l 1
 144 10 l 1
233 791 m 0
 218 791 205 804 205 820 c 0
 205 836 218 850 233 850 c 0
 247 850 259 837 259 820 c 0
 259 804 248 791 233 791 c 0
EndSplineSet
EndChar

StartChar: W
Encoding: 87 87 38
Width: 521
Flags: W
HStem: 797 20G<32 177.773>
VStem: 32 112<10 308 408 722>
LayerCount: 2
Fore
SplineSet
144 722 m 1
 144 408 l 1
 376 566 l 1
 144 722 l 1
32 815 m 1
 151 817 l 1
 487 566 l 1
 144 308 l 1
 144 10 l 1
 32 10 l 1
 32 815 l 1
EndSplineSet
EndChar

StartChar: X
Encoding: 88 88 39
Width: 795
Flags: W
HStem: 786 79G<32 148 642 758>
VStem: 32 116<392 786> 382 118<10 405> 642 116<478 885>
LayerCount: 2
Fore
SplineSet
758 478 m 1
 642 478 l 1
 642 885 l 1
 758 885 l 1
 758 478 l 1
32 264 m 1
 32 786 l 1
 148 786 l 1
 148 392 l 1
 162 398 l 0
 261 440 355 488 448 533 c 1
 500 532 l 1
 500 10 l 1
 382 10 l 1
 382 405 l 1
 368 399 l 0
 269 357 177 308 84 263 c 1
 32 264 l 1
EndSplineSet
EndChar

StartChar: Y
Encoding: 89 89 40
Width: 616
Flags: W
HStem: 192 87<206.085 276.641> 830 20G<32 158.357>
VStem: 32 112<10 633> 200 83<197.895 273.358>
LayerCount: 2
Fore
SplineSet
32 850 m 1
 148 850 l 1
 583 10 l 1
 468 10 l 1
 144 633 l 1
 144 10 l 1
 32 10 l 1
 32 850 l 1
241 192 m 0
 219 192 200 212 200 236 c 0
 200 260 219 279 241 279 c 0
 263 279 283 260 283 236 c 0
 283 212 263 192 241 192 c 0
EndSplineSet
EndChar

StartChar: Z
Encoding: 90 90 41
Width: 560
Flags: W
HStem: 865 20G<223 333>
VStem: 223 110<453 885>
LayerCount: 2
Fore
SplineSet
223 453 m 1
 223 885 l 1
 333 885 l 1
 333 453 l 1
 503 528 l 1
 527 447 l 1
 278 292 l 1
 29 447 l 1
 53 528 l 1
 223 453 l 1
EndSplineSet
EndChar

StartChar: a
Encoding: 97 97 42
Width: 373
Flags: W
HStem: 840 20G<32 231.333>
VStem: 32 112<20 594 676 778>
LayerCount: 2
Fore
SplineSet
32 20 m 1
 32 860 l 1
 153 860 l 1
 341 812 l 1
 318 732 l 1
 144 778 l 1
 144 676 l 1
 294 639 l 1
 269 561 l 1
 144 594 l 1
 144 20 l 1
 32 20 l 1
EndSplineSet
EndChar

StartChar: b
Encoding: 98 98 43
Width: 368
Flags: W
HStem: 840 20G<32 144>
VStem: 32 112<20 330 414 516 598 860>
LayerCount: 2
Fore
SplineSet
32 20 m 1
 32 860 l 1
 144 860 l 1
 144 598 l 1
 264 631 l 1
 289 553 l 1
 144 516 l 1
 144 414 l 1
 317 460 l 1
 337 381 l 1
 144 330 l 1
 144 20 l 1
 32 20 l 1
EndSplineSet
EndChar

StartChar: c
Encoding: 99 99 44
Width: 370
Flags: W
HStem: 865 20G<32 142>
VStem: 32 110<453 885>
LayerCount: 2
Fore
SplineSet
32 296 m 1
 32 885 l 1
 142 885 l 1
 142 453 l 1
 312 528 l 1
 336 448 l 1
 32 296 l 1
EndSplineSet
EndChar

StartChar: d
Encoding: 100 100 45
Width: 386
Flags: W
VStem: 222 110<20 359 467 740>
LayerCount: 2
Fore
SplineSet
332 359 m 1
 332 20 l 1
 222 20 l 1
 222 363 l 1
 220 365 l 0
 210 378 204 395 204 413 c 0
 204 431 210 448 220 461 c 0
 222 463 l 1
 222 740 l 1
 52 665 l 1
 28 745 l 1
 332 897 l 1
 332 467 l 1
 334 465 l 0
 346 450 354 432 354 413 c 0
 354 394 346 376 334 361 c 0
 332 359 l 1
EndSplineSet
EndChar

StartChar: e
Encoding: 101 101 46
Width: 715
Flags: W
VStem: 32 112<20 738> 565 112<20 738>
LayerCount: 2
Fore
SplineSet
565 20 m 1
 565 738 l 1
 354 599 l 1
 144 738 l 1
 144 20 l 1
 32 20 l 1
 32 903 l 1
 79 904 l 1
 355 694 l 1
 630 904 l 1
 677 903 l 1
 677 20 l 1
 565 20 l 1
EndSplineSet
EndChar

StartChar: f
Encoding: 102 102 47
Width: 525
Flags: W
HStem: 841 20G<32 144 342.61 483>
VStem: 32 112<21 221 369 477 625 861>
LayerCount: 2
Fore
SplineSet
144 20 m 1
 32 21 l 1
 32 861 l 1
 144 861 l 1
 144 625 l 1
 361 861 l 1
 483 861 l 1
 144 477 l 1
 144 369 l 1
 363 598 l 1
 484 598 l 1
 144 221 l 1
 144 20 l 1
EndSplineSet
EndChar

StartChar: g
Encoding: 103 103 48
Width: 650
Flags: W
HStem: 840 20G<33 158.069 488.868 614>
LayerCount: 2
Fore
SplineSet
381 440 m 1
 614 20 l 1
 500 20 l 1
 323 338 l 1
 147 20 l 1
 33 20 l 1
 266 440 l 1
 33 860 l 1
 147 860 l 1
 323 542 l 1
 500 860 l 1
 614 860 l 1
 381 440 l 1
EndSplineSet
EndChar

StartChar: h
Encoding: 104 104 49
Width: 511
Flags: W
HStem: 378 104<29 197 309 476> 840 20G<197 309>
VStem: 197 112<10 378 482 860>
LayerCount: 2
Fore
SplineSet
197 482 m 1
 197 860 l 1
 309 860 l 1
 309 482 l 1
 476 482 l 1
 476 378 l 1
 309 378 l 1
 309 10 l 1
 197 10 l 1
 197 378 l 1
 29 378 l 1
 29 482 l 1
 197 482 l 1
EndSplineSet
EndChar

StartChar: i
Encoding: 105 105 50
Width: 182
Flags: W
HStem: 840 20G<32 144>
VStem: 32 112<20 860>
LayerCount: 2
Fore
SplineSet
144 20 m 1
 32 20 l 1
 32 860 l 1
 144 860 l 1
 144 20 l 1
EndSplineSet
EndChar

StartChar: j
Encoding: 106 106 51
Width: 578
Flags: W
HStem: 816 20G<241.986 258>
LayerCount: 2
Fore
SplineSet
547 316 m 1
 318 29 l 1
 318 183 l 1
 431 316 l 1
 318 448 l 1
 318 602 l 1
 547 316 l 1
258 417 m 1
 258 263 l 1
 29 550 l 1
 258 836 l 1
 258 682 l 1
 145 550 l 1
 258 417 l 1
EndSplineSet
EndChar

StartChar: k
Encoding: 107 107 52
Width: 486
Flags: W
HStem: 841 20G<32 144 310.31 448>
VStem: 32 112<21 499 629 861>
LayerCount: 2
Fore
SplineSet
144 20 m 1
 32 21 l 1
 32 861 l 1
 144 861 l 1
 144 629 l 1
 326 861 l 1
 448 861 l 1
 144 499 l 1
 144 20 l 1
EndSplineSet
EndChar

StartChar: l
Encoding: 108 108 53
Width: 368
Flags: W
VStem: 32 110<20 740>
LayerCount: 2
Fore
SplineSet
142 20 m 1
 32 20 l 1
 32 897 l 1
 336 745 l 1
 312 665 l 1
 142 740 l 1
 142 20 l 1
EndSplineSet
EndChar

StartChar: m
Encoding: 109 109 54
Width: 715
Flags: W
VStem: 32 111<20 437 507 727> 565 112<20 438 507 727>
LayerCount: 2
Fore
SplineSet
143 507 m 1
 294 631 l 1
 143 727 l 1
 143 507 l 1
415 630 m 1
 565 507 l 1
 565 727 l 1
 415 630 l 1
677 20 m 1
 565 20 l 1
 565 438 l 1
 355 600 l 1
 144 437 l 1
 143 20 l 1
 32 20 l 1
 32 903 l 1
 79 904 l 1
 355 694 l 1
 630 904 l 1
 677 903 l 1
 677 20 l 1
EndSplineSet
EndChar

StartChar: n
Encoding: 110 110 55
Width: 368
Flags: W
HStem: 840 20G<32 144>
VStem: 32 112<20 422 506 860>
LayerCount: 2
Fore
SplineSet
144 20 m 1
 32 20 l 1
 32 860 l 1
 144 860 l 1
 144 506 l 1
 337 456 l 1
 319 376 l 1
 144 422 l 1
 144 20 l 1
EndSplineSet
EndChar

StartChar: o
Encoding: 111 111 56
Width: 542
Flags: W
LayerCount: 2
Fore
SplineSet
393 444 m 1
 270 588 l 1
 145 444 l 1
 270 301 l 1
 393 444 l 1
29 444 m 1
 270 744 l 1
 509 444 l 1
 331 222 l 1
 501 10 l 1
 385 10 l 1
 270 144 l 1
 150 9 l 1
 37 10 l 1
 207 222 l 1
 29 444 l 1
EndSplineSet
EndChar

StartChar: p
Encoding: 112 112 57
Width: 377
Flags: W
VStem: 32 112<148 776>
LayerCount: 2
Fore
SplineSet
80 20 m 1
 32 21 l 1
 32 903 l 1
 80 904 l 1
 343 783 l 1
 320 703 l 1
 144 776 l 1
 144 148 l 1
 320 221 l 1
 343 141 l 1
 80 20 l 1
EndSplineSet
EndChar

StartChar: q
Encoding: 113 113 58
Width: 433
Flags: W
HStem: 840 20G<283 395>
VStem: 283 112<20 133 245 615 747 860>
LayerCount: 2
Fore
SplineSet
29 440 m 1
 283 747 l 1
 283 860 l 1
 395 860 l 1
 395 20 l 1
 283 20 l 1
 283 133 l 1
 29 440 l 1
283 245 m 1
 283 615 l 1
 124 430 l 1
 283 245 l 1
EndSplineSet
EndChar

StartChar: r
Encoding: 114 114 59
Width: 600
Flags: W
HStem: 805 20G<32 178.623>
VStem: 32 112<20 736>
LayerCount: 2
Fore
SplineSet
341 426 m 1
 567 20 l 1
 452 20 l 1
 268 353 l 1
 268 460 l 1
 390 561 l 1
 144 736 l 1
 144 20 l 1
 32 20 l 1
 32 825 l 1
 151 825 l 1
 517 560 l 1
 341 426 l 1
EndSplineSet
EndChar

StartChar: s
Encoding: 115 115 60
Width: 181
Flags: W
HStem: 865 20G<32 144>
VStem: 32 112<478 885>
LayerCount: 2
Fore
SplineSet
144 478 m 1
 32 478 l 1
 32 885 l 1
 144 885 l 1
 144 478 l 1
EndSplineSet
EndChar

StartChar: t
Encoding: 116 116 61
Width: 370
Flags: W
VStem: 222 110<20 740>
LayerCount: 2
Fore
SplineSet
332 897 m 1
 332 20 l 1
 222 20 l 1
 222 740 l 1
 52 665 l 1
 28 745 l 1
 332 897 l 1
EndSplineSet
EndChar

StartChar: u
Encoding: 117 117 62
Width: 616
Flags: W
HStem: 840 20G<32 158.357>
VStem: 32 112<20 643>
LayerCount: 2
Fore
SplineSet
32 860 m 1
 148 860 l 1
 583 20 l 1
 468 20 l 1
 144 643 l 1
 144 20 l 1
 32 20 l 1
 32 860 l 1
EndSplineSet
EndChar

StartChar: v
Encoding: 118 118 63
Width: 525
Flags: W
HStem: 801 59<206.096 257.987>
VStem: 32 112<21 221 369 477 625 861> 205 54<801.743 859.082>
LayerCount: 2
Fore
SplineSet
144 20 m 1
 32 21 l 1
 32 861 l 1
 144 861 l 1
 144 625 l 1
 361 861 l 1
 483 861 l 1
 144 477 l 1
 144 369 l 1
 363 598 l 1
 484 598 l 1
 144 221 l 1
 144 20 l 1
233 801 m 0
 218 801 205 814 205 830 c 0
 205 846 218 860 233 860 c 0
 247 860 259 847 259 830 c 0
 259 814 248 801 233 801 c 0
EndSplineSet
EndChar

StartChar: w
Encoding: 119 119 64
Width: 521
Flags: W
HStem: 807 20G<32 177.773>
VStem: 32 112<20 318 408 722>
LayerCount: 2
Fore
SplineSet
144 722 m 1
 144 408 l 1
 376 566 l 1
 144 722 l 1
32 825 m 1
 151 827 l 1
 487 576 l 1
 144 318 l 1
 144 20 l 1
 32 20 l 1
 32 825 l 1
EndSplineSet
EndChar

StartChar: x
Encoding: 120 120 65
Width: 766
Flags: W
HStem: 128 74<374 502 618 734> 632 74<28 150 268 388> 776 20G<150 268>
VStem: 150 118<402 632 706 796> 502 116<20 128 202 415>
LayerCount: 2
Fore
SplineSet
150 706 m 1
 150 796 l 1
 268 796 l 1
 268 706 l 1
 388 706 l 1
 388 632 l 1
 268 632 l 1
 268 402 l 1
 282 408 l 0
 381 450 473 497 566 542 c 1
 618 541 l 1
 618 202 l 1
 734 202 l 1
 734 128 l 1
 618 128 l 1
 618 20 l 1
 502 20 l 1
 502 128 l 1
 374 128 l 1
 374 202 l 1
 502 202 l 1
 502 415 l 1
 488 409 l 0
 389 367 295 318 202 273 c 1
 150 274 l 1
 150 632 l 1
 28 632 l 1
 28 706 l 1
 150 706 l 1
EndSplineSet
EndChar

StartChar: y
Encoding: 121 121 66
Width: 616
Flags: W
HStem: 192 87<206.085 276.641> 840 20G<32 158.357>
VStem: 32 112<20 643> 200 83<197.895 273.358>
LayerCount: 2
Fore
SplineSet
32 860 m 1
 148 860 l 1
 583 20 l 1
 468 20 l 1
 144 643 l 1
 144 20 l 1
 32 20 l 1
 32 860 l 1
241 192 m 0
 219 192 200 212 200 236 c 0
 200 260 219 279 241 279 c 0
 263 279 283 260 283 236 c 0
 283 212 263 192 241 192 c 0
EndSplineSet
EndChar

StartChar: z
Encoding: 122 122 67
Width: 560
Flags: W
HStem: 865 20G<223 333>
VStem: 223 110<453 885>
LayerCount: 2
Fore
SplineSet
223 453 m 1
 223 885 l 1
 333 885 l 1
 333 453 l 1
 503 528 l 1
 527 447 l 1
 278 292 l 1
 29 447 l 1
 53 528 l 1
 223 453 l 1
EndSplineSet
EndChar

StartChar: Adieresis
Encoding: 196 196 68
Width: 627
Flags: W
HStem: 22 86<290.572 362.176> 830 20G<472 589>
VStem: 285 83<27.6424 102.358> 472 117<10 346 438 850>
LayerCount: 2
Fore
SplineSet
472 346 m 1
 459 341 l 2
 344 298 174 161 117 10 c 1
 29 10 l 1
 79 183 301 375 465 436 c 0
 472 438 l 1
 472 850 l 1
 589 850 l 1
 589 10 l 1
 472 10 l 1
 472 346 l 1
326 108 m 0
 348 108 368 89 368 65 c 0
 368 41 348 22 326 22 c 0
 304 22 285 41 285 65 c 0
 285 89 304 108 326 108 c 0
EndSplineSet
EndChar

StartChar: Aring
Encoding: 197 197 69
Width: 570
Flags: W
HStem: 830 20G<233 350>
VStem: 233 117<10 352 532 850>
LayerCount: 2
Fore
SplineSet
371 442 m 1
 535 347 l 1
 491 271 l 1
 350 352 l 1
 350 10 l 1
 233 10 l 1
 233 362 l 1
 75 271 l 1
 31 347 l 1
 195 442 l 1
 31 537 l 1
 75 613 l 1
 233 522 l 1
 233 850 l 1
 350 850 l 1
 350 532 l 1
 491 613 l 1
 535 537 l 1
 371 442 l 1
EndSplineSet
EndChar

StartChar: AE
Encoding: 198 198 70
Width: 563
Flags: W
VStem: 222 116<147 776>
LayerCount: 2
Fore
SplineSet
338 776 m 1
 338 20 l 1
 286 19 l 1
 28 140 l 1
 51 220 l 1
 222 147 l 1
 222 903 l 1
 274 904 l 1
 532 783 l 1
 509 703 l 1
 338 776 l 1
EndSplineSet
EndChar

StartChar: Eth
Encoding: 208 208 71
Width: 429
Flags: W
HStem: 407 45<192.029 233.971> 830 20G<32 144>
VStem: 32 112<10 123 244 615 737 850> 192 42<407.008 451.993>
LayerCount: 2
Fore
SplineSet
144 850 m 1
 144 737 l 1
 398 430 l 1
 144 123 l 1
 144 10 l 1
 32 10 l 1
 32 850 l 1
 144 850 l 1
303 430 m 1
 144 615 l 1
 144 244 l 1
 303 430 l 1
213 407 m 0
 202 407 192 418 192 430 c 0
 192 442 202 452 213 452 c 0
 224 452 234 442 234 430 c 0
 234 418 224 407 213 407 c 0
EndSplineSet
EndChar

StartChar: Odieresis
Encoding: 214 214 72
Width: 885
Flags: W
HStem: 831 20G<382 500>
VStem: 28 126<11 80.6422> 382 118<10 320 460 851> 728 126<10 79.3741>
CounterMasks: 1 70
LayerCount: 2
Fore
SplineSet
377 457 m 0
 382 460 l 1
 382 851 l 1
 500 851 l 1
 500 460 l 1
 505 457 l 0
 697 349 825 150 854 10 c 1
 728 10 l 1
 725 112 613 256 515 312 c 0
 500 320 l 1
 500 10 l 1
 382 10 l 1
 382 320 l 1
 367 312 l 0
 268 256 157 112 154 11 c 1
 28 11 l 1
 58 152 185 349 377 457 c 0
EndSplineSet
EndChar

StartChar: Oslash
Encoding: 216 216 73
Width: 568
Flags: W
HStem: 830 20G<222 339>
VStem: 222 117<10 268 387 442 557 850>
LayerCount: 2
Fore
SplineSet
339 10 m 1
 222 10 l 1
 222 268 l 1
 63 225 l 1
 42 306 l 1
 222 354 l 1
 222 442 l 1
 50 396 l 1
 29 476 l 1
 222 526 l 1
 222 850 l 1
 339 850 l 1
 339 557 l 1
 511 602 l 1
 524 521 l 1
 339 473 l 1
 339 387 l 1
 505 432 l 1
 535 354 l 1
 339 301 l 1
 339 10 l 1
EndSplineSet
EndChar

StartChar: Thorn
Encoding: 222 222 74
Width: 429
Flags: W
HStem: 830 20G<32 144>
VStem: 32 112<10 123 245 615 737 850>
LayerCount: 2
Fore
SplineSet
144 850 m 1
 144 737 l 1
 398 430 l 1
 144 123 l 1
 144 10 l 1
 32 10 l 1
 32 850 l 1
 144 850 l 1
303 430 m 1
 144 615 l 1
 144 245 l 1
 303 430 l 1
EndSplineSet
EndChar

StartChar: adieresis
Encoding: 228 228 75
Width: 627
Flags: W
HStem: 22 86<290.572 362.176> 840 20G<472 589>
VStem: 285 83<27.6424 102.358> 472 117<20 356 448 860>
LayerCount: 2
Fore
SplineSet
472 356 m 1
 459 351 l 2
 344 308 174 171 117 20 c 1
 29 20 l 1
 79 193 301 385 465 446 c 0
 472 448 l 1
 472 860 l 1
 589 860 l 1
 589 20 l 1
 472 20 l 1
 472 356 l 1
326 108 m 0
 348 108 368 89 368 65 c 0
 368 41 348 22 326 22 c 0
 304 22 285 41 285 65 c 0
 285 89 304 108 326 108 c 0
EndSplineSet
EndChar

StartChar: aring
Encoding: 229 229 76
Width: 570
Flags: W
HStem: 840 20G<233 350>
VStem: 233 117<20 362 542 860>
LayerCount: 2
Fore
SplineSet
371 452 m 1
 535 357 l 1
 491 281 l 1
 350 362 l 1
 350 20 l 1
 233 20 l 1
 233 372 l 1
 75 281 l 1
 31 357 l 1
 195 452 l 1
 31 547 l 1
 75 623 l 1
 233 532 l 1
 233 860 l 1
 350 860 l 1
 350 542 l 1
 491 623 l 1
 535 547 l 1
 371 452 l 1
EndSplineSet
EndChar

StartChar: ae
Encoding: 230 230 77
Width: 563
Flags: W
VStem: 222 116<147 776>
LayerCount: 2
Fore
SplineSet
338 776 m 1
 338 20 l 1
 286 19 l 1
 28 140 l 1
 51 220 l 1
 222 147 l 1
 222 903 l 1
 274 904 l 1
 532 783 l 1
 509 703 l 1
 338 776 l 1
EndSplineSet
EndChar

StartChar: eth
Encoding: 240 240 78
Width: 429
Flags: W
HStem: 407 45<192.029 233.971> 840 20G<32 144>
VStem: 32 112<20 133 244 615 747 860> 192 42<407.008 451.993>
LayerCount: 2
Fore
SplineSet
144 860 m 1
 144 747 l 1
 398 440 l 1
 144 133 l 1
 144 20 l 1
 32 20 l 1
 32 860 l 1
 144 860 l 1
303 430 m 1
 144 615 l 1
 144 244 l 1
 303 430 l 1
213 407 m 0
 202 407 192 418 192 430 c 0
 192 442 202 452 213 452 c 0
 224 452 234 442 234 430 c 0
 234 418 224 407 213 407 c 0
EndSplineSet
EndChar

StartChar: odieresis
Encoding: 246 246 79
Width: 885
Flags: W
HStem: 841 20G<382 500>
VStem: 28 126<21 90.6422> 382 118<20 330 470 861> 728 126<20 89.3741>
CounterMasks: 1 70
LayerCount: 2
Fore
SplineSet
377 467 m 0
 382 470 l 1
 382 861 l 1
 500 861 l 1
 500 470 l 1
 505 467 l 0
 697 359 825 160 854 20 c 1
 728 20 l 1
 725 122 613 266 515 322 c 0
 500 330 l 1
 500 20 l 1
 382 20 l 1
 382 330 l 1
 367 322 l 0
 268 266 157 122 154 21 c 1
 28 21 l 1
 58 162 185 359 377 467 c 0
EndSplineSet
EndChar

StartChar: oslash
Encoding: 248 248 80
Width: 568
Flags: W
HStem: 840 20G<222 339>
VStem: 222 117<20 278 397 452 567 860>
LayerCount: 2
Fore
SplineSet
339 20 m 1
 222 20 l 1
 222 278 l 1
 63 235 l 1
 42 316 l 1
 222 364 l 1
 222 452 l 1
 50 406 l 1
 29 486 l 1
 222 536 l 1
 222 860 l 1
 339 860 l 1
 339 567 l 1
 511 612 l 1
 524 531 l 1
 339 483 l 1
 339 397 l 1
 505 442 l 1
 535 364 l 1
 339 311 l 1
 339 20 l 1
EndSplineSet
EndChar

StartChar: thorn
Encoding: 254 254 81
Width: 429
Flags: W
HStem: 840 20G<32 144>
VStem: 32 112<20 133 245 615 747 860>
LayerCount: 2
Fore
SplineSet
144 860 m 1
 144 747 l 1
 398 440 l 1
 144 133 l 1
 144 20 l 1
 32 20 l 1
 32 860 l 1
 144 860 l 1
303 430 m 1
 144 615 l 1
 144 245 l 1
 303 430 l 1
EndSplineSet
EndChar

StartChar: Eng
Encoding: 330 330 82
Width: 542
Flags: W
LayerCount: 2
Fore
SplineSet
145 430 m 1
 270 279 l 1
 393 430 l 1
 270 581 l 1
 145 430 l 1
509 430 m 1
 270 124 l 1
 29 430 l 1
 270 736 l 1
 509 430 l 1
EndSplineSet
EndChar

StartChar: eng
Encoding: 331 331 83
Width: 662
Flags: W
HStem: 840 20G<69 181 515 630>
VStem: 69 112<20 385 578 860>
LayerCount: 2
Fore
SplineSet
181 578 m 1
 186 575 l 2
 198 568 208 558 216 546 c 0
 221 539 l 1
 228 543 l 0
 340 596 489 723 541 860 c 1
 630 860 l 1
 584 703 394 532 237 456 c 0
 233 454 l 1
 231 450 l 0
 224 425 207 402 186 388 c 0
 181 385 l 1
 181 20 l 1
 69 20 l 1
 69 395 l 1
 66 398 l 0
 43 418 27 448 27 482 c 0
 27 516 43 546 66 566 c 0
 69 569 l 1
 69 860 l 1
 181 860 l 1
 181 578 l 1
EndSplineSet
EndChar

StartChar: OE
Encoding: 338 338 84
Width: 568
Flags: W
HStem: 830 20G<222 339>
VStem: 222 117<10 268 387 442 557 850>
LayerCount: 2
Fore
SplineSet
339 10 m 1
 222 10 l 1
 222 268 l 1
 63 225 l 1
 42 306 l 1
 222 354 l 1
 222 442 l 1
 50 396 l 1
 29 476 l 1
 222 526 l 1
 222 850 l 1
 339 850 l 1
 339 557 l 1
 511 602 l 1
 524 521 l 1
 339 473 l 1
 339 387 l 1
 505 432 l 1
 535 354 l 1
 339 301 l 1
 339 10 l 1
EndSplineSet
EndChar

StartChar: oe
Encoding: 339 339 85
Width: 568
Flags: W
HStem: 840 20G<222 339>
VStem: 222 117<20 278 397 452 567 860>
LayerCount: 2
Fore
SplineSet
339 20 m 1
 222 20 l 1
 222 278 l 1
 63 235 l 1
 42 316 l 1
 222 364 l 1
 222 452 l 1
 50 406 l 1
 29 486 l 1
 222 536 l 1
 222 860 l 1
 339 860 l 1
 339 567 l 1
 511 612 l 1
 524 531 l 1
 339 483 l 1
 339 397 l 1
 505 442 l 1
 535 364 l 1
 339 311 l 1
 339 20 l 1
EndSplineSet
EndChar

StartChar: germandbls
Encoding: 223 223 86
Width: 435
Flags: W
HStem: 865 20G<32 144 286 398>
VStem: 32 112<478 885> 286 112<478 885>
LayerCount: 2
Fore
SplineSet
144 478 m 1
 32 478 l 1
 32 885 l 1
 144 885 l 1
 144 478 l 1
398 478 m 1
 286 478 l 1
 286 885 l 1
 398 885 l 1
 398 478 l 1
EndSplineSet
EndChar
